<?xml version="1.0" standalone="no"?>
<!DOCTYPE svg PUBLIC "-//W3C//DTD SVG 20010904//EN"
 "http://www.w3.org/TR/2001/REC-SVG-20010904/DTD/svg10.dtd">
<svg version="1.0" xmlns="http://www.w3.org/2000/svg"
 width="500.000000pt" height="500.000000pt" viewBox="0 0 500.000000 500.000000"
 preserveAspectRatio="xMidYMid meet">

<g transform="translate(0.000000,500.000000) scale(0.100000,-0.100000)"
fill="#000000" stroke="none">
<path d="M985 2866 c-11 -9 -32 -25 -47 -36 -31 -25 -71 -97 -64 -116 3 -8 1
-14 -5 -14 -6 0 -6 -7 1 -19 5 -11 6 -21 1 -23 -4 -2 -11 -52 -14 -111 -7
-108 -12 -132 -26 -123 -4 3 -8 -1 -8 -9 0 -9 4 -11 11 -6 18 14 42 9 42 -10
0 -11 -6 -15 -15 -11 -11 4 -9 -1 4 -20 l19 -25 27 42 c15 23 41 52 59 65 l32
23 -24 15 c-47 28 -65 81 -47 139 25 80 165 104 219 36 14 -18 20 -41 20 -77
l0 -51 -109 -105 c-134 -129 -151 -155 -151 -235 0 -77 24 -119 85 -146 55
-24 114 -17 157 19 35 30 48 58 58 128 12 78 32 111 129 211 90 92 111 129
111 194 0 20 -10 33 -41 54 -23 15 -78 62 -123 105 -44 42 -97 85 -116 95 -48
25 -158 31 -185 11z"/>
<path d="M3977 2503 c-4 -3 -7 -21 -7 -40 0 -29 -3 -33 -25 -33 -14 0 -37 -11
-50 -25 -33 -32 -35 -100 -4 -138 19 -25 25 -26 92 -24 70 2 72 3 75 30 2 15
-1 27 -7 27 -7 0 -11 36 -11 99 0 81 -3 100 -16 105 -20 8 -39 8 -47 -1z m-7
-168 c0 -24 -5 -35 -15 -35 -10 0 -15 11 -15 35 0 24 5 35 15 35 10 0 15 -11
15 -35z"/>
<path d="M1710 2470 c0 -25 4 -30 25 -30 l25 0 0 -100 0 -100 35 0 34 0 3 98
3 97 28 3 c23 3 27 8 27 33 l0 29 -90 0 -90 0 0 -30z"/>
<path d="M3442 2373 l3 -128 52 -3 c91 -5 143 43 143 131 0 91 -40 127 -140
127 l-61 0 3 -127z m112 41 c10 -26 7 -79 -6 -92 -27 -27 -38 -13 -38 48 0 52
2 60 19 60 10 0 22 -7 25 -16z"/>
<path d="M1935 2407 c-23 -19 -28 -32 -29 -69 -1 -64 30 -98 90 -98 43 0 72
20 59 41 -4 6 -19 9 -34 6 -31 -7 -66 8 -41 17 8 3 26 6 40 8 14 2 31 14 39
30 14 25 14 29 -5 55 -29 38 -81 43 -119 10z m65 -47 c0 -5 -7 -10 -15 -10 -8
0 -15 5 -15 10 0 6 7 10 15 10 8 0 15 -4 15 -10z"/>
<path d="M2084 2408 c-3 -11 1 -27 10 -37 11 -12 16 -36 16 -74 0 -57 0 -57
30 -57 l30 0 0 65 c0 50 3 65 15 65 10 0 15 -16 17 -62 3 -63 3 -63 36 -66
l32 -3 0 68 c0 37 -6 79 -13 93 -12 23 -18 25 -90 26 -67 0 -78 -2 -83 -18z"/>
<path d="M2327 2410 c-30 -24 -41 -75 -26 -118 12 -36 35 -52 74 -52 16 0 24
-4 19 -11 -3 -6 -22 -9 -40 -7 -27 3 -35 0 -40 -15 -4 -11 0 -23 7 -28 23 -14
93 -10 117 7 20 14 22 23 22 119 0 93 -2 105 -19 115 -31 16 -86 12 -114 -10z
m73 -76 c0 -28 -3 -35 -17 -32 -31 6 -29 68 2 68 11 0 15 -10 15 -36z"/>
<path d="M2515 2405 c-19 -18 -25 -35 -25 -70 0 -35 6 -52 25 -70 28 -29 79
-33 112 -10 25 17 39 71 29 110 -16 65 -94 88 -141 40z m80 -54 c7 -23 -3 -51
-20 -51 -7 0 -16 7 -19 16 -9 23 2 54 19 54 8 0 16 -8 20 -19z"/>
<path d="M2760 2352 c0 -102 9 -112 105 -109 68 2 70 3 73 30 2 15 -1 27 -7
27 -7 0 -11 26 -11 65 l0 65 -30 0 c-29 0 -29 -1 -32 -62 -2 -50 -6 -63 -20
-66 -16 -3 -18 5 -18 62 l0 66 -30 0 -30 0 0 -78z"/>
<path d="M2967 2424 c-11 -11 -8 -54 3 -54 6 0 10 -28 10 -65 l0 -65 30 0 c29
0 29 1 32 63 2 47 7 62 18 62 11 0 16 -15 18 -62 3 -62 3 -63 32 -63 l30 0 0
73 c0 94 -16 122 -69 113 -50 -8 -53 -8 -76 -1 -11 3 -24 3 -28 -1z"/>
<path d="M3197 2423 c-4 -3 -7 -15 -7 -25 0 -13 8 -18 30 -18 17 0 30 -4 30
-10 0 -5 -13 -10 -28 -10 -53 0 -78 -53 -47 -97 13 -19 24 -21 90 -21 l75 1 0
28 c0 16 -4 29 -10 29 -5 0 -10 19 -10 43 0 62 -21 87 -74 87 -23 0 -46 -3
-49 -7z m55 -125 c-15 -15 -26 -4 -18 18 5 13 9 15 18 6 9 -9 9 -15 0 -24z"/>
<path d="M3670 2352 c0 -102 9 -112 105 -109 68 2 70 3 73 30 2 15 -1 27 -7
27 -7 0 -11 26 -11 65 l0 65 -30 0 c-29 0 -29 -1 -32 -62 -2 -50 -6 -63 -20
-66 -16 -3 -18 5 -18 62 l0 66 -30 0 -30 0 0 -78z"/>
<path d="M4111 2421 c-23 -15 -5 -41 29 -41 16 0 30 -4 30 -10 0 -5 -12 -10
-26 -10 -14 0 -34 -5 -45 -10 -25 -14 -26 -71 -1 -93 21 -19 73 -22 89 -6 8 8
13 8 17 0 4 -6 16 -11 26 -11 27 0 39 49 16 62 -11 6 -16 23 -16 53 0 26 -6
50 -16 59 -17 17 -80 21 -103 7z m59 -111 c0 -11 -4 -20 -9 -20 -14 0 -23 18
-16 30 10 17 25 11 25 -10z"/>
<path d="M1264 2086 c-3 -8 -4 -25 -2 -38 2 -18 9 -23 32 -23 36 0 56 27 40
53 -14 22 -62 28 -70 8z"/>
</g>
</svg>
