<?xml version="1.0" standalone="no"?>
<!DOCTYPE svg PUBLIC "-//W3C//DTD SVG 20010904//EN"
 "http://www.w3.org/TR/2001/REC-SVG-20010904/DTD/svg10.dtd">
<svg version="1.0" xmlns="http://www.w3.org/2000/svg"
 width="500.000000pt" height="500.000000pt" viewBox="0 0 500.000000 500.000000"
 preserveAspectRatio="xMidYMid meet">

<g transform="translate(0.000000,500.000000) scale(0.100000,-0.100000)"
fill="#000000" stroke="none">
<path d="M2386 3396 c-5 -36 -12 -53 -17 -45 -4 7 -5 17 -3 21 3 4 -2 8 -10 8
-9 0 -16 -5 -16 -10 0 -6 -6 -10 -13 -8 -7 2 -13 1 -13 -2 0 -14 -43 -54 -77
-71 -21 -11 -43 -31 -49 -44 -6 -14 -15 -25 -20 -25 -5 0 -14 -13 -19 -30 -6
-16 -15 -30 -21 -30 -5 0 -7 -4 -4 -9 3 -5 -1 -14 -9 -21 -8 -7 -15 -22 -15
-34 0 -12 -10 -33 -22 -46 -15 -16 -18 -25 -10 -28 16 -5 16 -74 0 -90 -9 -9
-9 -12 0 -12 7 0 12 -12 11 -27 l-1 -28 -8 25 c-8 25 -13 -32 -14 -145 0 -22
-4 -43 -9 -46 -5 -3 -10 -39 -13 -80 -2 -41 -7 -98 -10 -126 -4 -33 -2 -53 4
-53 6 0 8 -9 5 -20 -3 -11 -9 -17 -14 -14 -5 3 -5 -5 -1 -17 10 -26 4 -69 -10
-69 -5 0 -6 -5 -3 -10 4 -6 11 -8 16 -5 5 4 11 -1 14 -9 3 -9 8 -24 12 -33 13
-35 14 -66 3 -73 -8 -5 -6 -9 5 -13 10 -5 14 -3 9 5 -4 7 -3 8 5 4 9 -6 9 -11
0 -22 -10 -12 -9 -13 6 -8 14 6 16 4 10 -6 -6 -9 -4 -11 5 -5 7 4 16 2 21 -6
7 -11 9 -9 9 8 0 12 -5 24 -10 26 -6 3 -5 4 2 3 15 -3 23 4 70 69 34 47 105
117 175 172 31 26 35 20 -49 79 -27 19 -58 54 -77 87 -26 46 -31 65 -31 119 0
36 5 80 12 99 11 32 78 129 78 113 0 -4 10 2 23 14 63 59 188 84 285 57 75
-21 141 -79 175 -153 31 -67 30 -180 -3 -242 -39 -76 -68 -107 -239 -255 -189
-162 -232 -206 -290 -289 -55 -80 -81 -166 -81 -270 0 -168 62 -275 200 -346
68 -36 213 -40 294 -9 123 46 207 169 222 325 13 145 52 252 128 352 24 31
113 123 198 204 178 168 214 223 243 366 25 123 23 127 -71 191 -127 88 -207
155 -358 306 -117 116 -154 146 -216 177 -103 52 -186 72 -302 72 -89 1 -98 3
-101 21 -2 11 -7 -6 -11 -39z m-19 -128 c-3 -7 -5 -2 -5 12 0 14 2 19 5 13 2
-7 2 -19 0 -25z"/>
<path d="M2016 2272 c-3 -6 -1 -14 5 -17 14 -9 20 -2 10 14 -6 8 -11 9 -15 3z"/>
<path d="M3021 1541 c-14 -14 -18 -34 -19 -84 0 -61 2 -69 26 -88 54 -42 152
-6 167 62 8 38 -11 95 -38 114 -31 22 -112 20 -136 -4z"/>
</g>
</svg>
